<?xml version="1.0" standalone="no"?>
<!DOCTYPE svg PUBLIC "-//W3C//DTD SVG 20010904//EN"
 "http://www.w3.org/TR/2001/REC-SVG-20010904/DTD/svg10.dtd">
<svg version="1.0" xmlns="http://www.w3.org/2000/svg"
 width="4096.000000pt" height="4096.000000pt" viewBox="0 0 4096.000000 4096.000000"
 preserveAspectRatio="xMidYMid meet">
<metadata>
Created by potrace 1.15, written by Peter Selinger 2001-2017
</metadata>
<g transform="translate(0.000000,4096.000000) scale(0.100000,-0.100000)"
fill="#000000" stroke="none">
<path d="M24185 32959 c-346 -28 -874 -136 -1250 -254 -275 -87 -676 -239
-985 -375 -100 -44 -595 -290 -740 -368 -257 -138 -626 -355 -1130 -667 -428
-264 -1255 -707 -1525 -818 -33 -14 -112 -47 -175 -75 -270 -117 -899 -337
-1285 -449 -652 -189 -934 -259 -1515 -372 -1087 -212 -2278 -306 -3320 -261
-392 17 -1076 77 -1265 111 -33 6 -106 17 -163 24 -57 7 -106 15 -109 19 -3 3
8 34 26 69 158 322 159 702 3 1012 -139 277 -400 509 -680 604 -228 77 -560
75 -785 -6 -158 -56 -286 -135 -410 -252 -170 -160 -264 -324 -323 -562 -24
-100 -28 -133 -28 -269 -1 -310 85 -539 292 -784 137 -161 361 -303 518 -327
l80 -12 38 -96 c32 -83 167 -453 446 -1226 169 -468 282 -789 591 -1684 66
-189 153 -437 194 -550 40 -113 105 -296 143 -406 39 -110 95 -272 127 -360
75 -211 309 -888 447 -1290 60 -176 148 -428 195 -560 88 -248 164 -464 251
-716 28 -80 95 -264 148 -410 53 -145 125 -347 159 -449 35 -102 111 -320 169
-485 59 -165 136 -383 172 -485 36 -102 86 -239 111 -305 25 -66 67 -183 93
-260 26 -77 98 -277 160 -445 62 -168 167 -462 235 -655 68 -192 152 -429 188
-525 36 -96 103 -278 147 -405 45 -126 101 -284 125 -350 53 -144 393 -1103
475 -1335 32 -91 115 -322 184 -515 70 -192 150 -415 178 -495 74 -209 218
-612 305 -850 41 -113 102 -284 135 -380 33 -96 64 -179 69 -184 9 -10 89 13
510 149 141 46 308 95 370 111 63 15 116 29 118 30 7 6 -92 300 -146 434 -59
146 -153 402 -258 705 -36 105 -84 240 -107 300 -22 61 -84 238 -138 395 -54
157 -132 377 -173 490 -42 113 -103 284 -137 380 -68 194 -144 398 -197 535
-20 50 -82 224 -139 388 -57 164 -120 339 -140 390 -50 128 -156 422 -219 607
-29 85 -78 223 -108 305 -59 158 -281 786 -448 1265 -55 157 -143 404 -195
550 -53 146 -111 310 -130 365 -20 55 -52 144 -73 198 -37 93 -38 98 -17 93
52 -13 169 -27 406 -51 463 -45 714 -57 1190 -58 662 0 1058 29 1745 128 637
93 1461 292 2100 509 904 306 1385 515 2865 1243 1193 588 2051 928 2858 1134
228 58 672 146 882 174 593 79 1146 86 1682 19 404 -49 1077 -197 1270 -278
50 -21 59 -20 53 7 -30 136 -94 377 -125 477 -21 69 -50 163 -64 210 -101 348
-217 737 -271 905 -35 110 -107 349 -160 530 -54 182 -105 351 -115 376 -25
62 -91 282 -195 644 -47 165 -119 406 -159 535 -80 254 -101 324 -206 675 -38
127 -87 284 -109 350 -42 125 -118 375 -177 580 -19 66 -68 224 -109 350 -41
127 -113 361 -160 520 -47 160 -126 414 -175 565 -48 151 -112 354 -140 450
-99 335 -112 376 -142 475 -16 55 -54 175 -84 267 -48 150 -230 744 -257 840
-7 25 -19 41 -36 47 -67 27 -437 94 -616 111 -147 15 -703 21 -840 9z m-1775
-1391 c7 -24 29 -97 50 -163 44 -136 143 -481 190 -660 17 -66 47 -172 66
-235 20 -63 57 -194 84 -290 27 -96 87 -310 133 -475 98 -350 111 -400 102
-414 -3 -6 -38 -20 -78 -32 -102 -30 -383 -135 -652 -244 -283 -115 -614 -267
-930 -429 -265 -135 -846 -464 -996 -563 -53 -35 -103 -63 -112 -63 -12 0 -24
24 -42 88 -15 48 -37 121 -50 162 -37 116 -160 523 -195 645 -17 61 -55 187
-85 280 -29 94 -62 202 -73 240 -12 39 -36 124 -56 190 -56 195 -117 448 -109
456 26 24 573 388 738 491 50 31 155 96 235 146 578 359 1630 908 1747 911 18
1 24 -7 33 -41z m2675 -2008 c180 -13 323 -33 510 -69 209 -41 196 -33 224
-132 12 -46 81 -275 151 -509 147 -490 169 -565 209 -715 16 -60 54 -193 85
-295 90 -301 154 -535 147 -542 -3 -4 -37 2 -76 13 -88 25 -365 64 -551 78
-381 29 -868 -2 -1249 -80 -224 -46 -357 -82 -598 -163 -146 -48 -220 -69
-226 -62 -5 6 -16 45 -26 86 -19 82 -213 806 -243 910 -62 213 -150 531 -212
770 -39 151 -80 303 -89 337 l-18 61 60 17 c33 9 130 39 216 67 596 190 1159
266 1686 228z m-8500 -722 c7 -22 36 -117 210 -668 186 -591 236 -751 274
-881 22 -74 70 -222 106 -328 37 -106 65 -194 63 -197 -5 -4 -1014 -173 -1428
-239 -510 -80 -765 -124 -1112 -191 -186 -35 -353 -64 -372 -64 -31 0 -35 4
-41 33 -11 50 -130 432 -164 529 -39 108 -73 219 -157 508 -36 124 -105 347
-154 495 -77 235 -162 514 -177 581 -6 24 -43 20 347 44 695 44 1756 196 2370
340 91 21 176 43 190 49 36 14 38 13 45 -11z m3629 -936 c3 -5 17 -53 31 -108
15 -54 37 -135 51 -179 13 -44 48 -163 78 -265 124 -423 442 -1424 468 -1473
15 -28 4 -43 -54 -70 -883 -421 -1613 -739 -2358 -1027 -217 -84 -425 -166
-446 -176 -12 -5 -65 149 -251 736 -46 146 -99 312 -118 370 -18 58 -92 294
-164 525 -71 231 -136 433 -145 450 -8 16 -14 31 -12 32 2 2 57 17 122 33 154
39 775 247 1063 357 391 148 1011 430 1361 619 358 192 362 194 374 176z
m3486 -1032 c15 -58 59 -215 98 -350 39 -135 98 -348 132 -475 69 -259 172
-633 196 -713 8 -30 33 -122 55 -205 35 -139 37 -153 22 -164 -15 -11 -121
-47 -373 -124 -164 -50 -735 -258 -915 -334 -425 -178 -749 -324 -1121 -505
-137 -66 -254 -120 -260 -120 -15 0 -28 34 -53 135 -11 44 -31 114 -44 155
-89 275 -204 643 -362 1165 -76 252 -105 356 -105 376 0 9 35 34 83 58 45 24
150 81 232 126 188 102 357 188 600 303 105 49 228 109 275 132 146 72 546
254 770 351 262 113 722 298 734 295 5 -1 21 -49 36 -106z m-12057 -526 c108
-32 478 -107 677 -138 345 -52 474 -61 930 -61 432 0 545 6 889 50 63 8 116
13 118 11 2 -2 21 -70 43 -152 21 -82 68 -241 104 -354 35 -113 108 -347 161
-520 121 -393 251 -801 316 -986 27 -77 49 -148 49 -156 0 -19 -22 -23 -195
-38 -892 -76 -1616 -41 -2280 111 -71 16 -140 32 -153 35 -33 7 -43 33 -203
519 -77 237 -154 468 -171 515 -48 134 -203 598 -264 790 -64 206 -118 367
-129 394 -7 17 -6 18 11 11 10 -4 54 -18 97 -31z m6284 -1836 c15 -20 162
-497 399 -1298 31 -102 84 -277 120 -390 35 -113 64 -215 64 -226 0 -15 -11
-23 -47 -33 -27 -8 -82 -24 -123 -37 -412 -126 -1158 -293 -1645 -368 -409
-63 -772 -103 -970 -109 l-90 -2 -53 165 c-29 91 -107 327 -172 525 -65 198
-133 407 -150 465 -89 292 -185 581 -231 694 -16 39 -29 74 -29 77 0 3 68 9
151 13 571 26 1376 149 1994 306 170 43 743 215 754 226 8 7 18 4 28 -8z"/>
<path d="M29883 30447 c-5 -7 -21 -32 -36 -57 -14 -25 -87 -129 -163 -230 -76
-102 -200 -273 -276 -380 -76 -107 -166 -233 -199 -279 -33 -46 -63 -89 -65
-96 -3 -6 103 -121 233 -256 677 -694 949 -1011 1320 -1534 451 -635 843
-1301 1111 -1886 161 -352 360 -846 465 -1159 359 -1062 590 -2215 668 -3330
6 -91 13 -168 15 -172 4 -5 1285 0 1291 6 6 5 -29 634 -47 836 -66 761 -172
1328 -425 2275 -69 258 -56 218 -215 700 -146 441 -163 488 -310 850 -57 138
-111 271 -121 297 -35 89 -310 654 -391 803 -306 564 -508 894 -846 1380 -435
624 -928 1201 -1578 1846 -318 316 -417 405 -431 386z"/>
<path d="M8453 27871 c-310 -438 -542 -829 -795 -1341 -234 -474 -282 -582
-465 -1050 -342 -876 -606 -1838 -737 -2695 -58 -374 -106 -761 -131 -1040
-17 -202 -40 -659 -33 -677 5 -11 123 -11 639 -4 349 4 635 9 637 11 1 1 9 98
17 216 45 641 122 1166 276 1879 112 514 221 908 388 1402 205 604 569 1407
839 1849 15 26 13 32 -61 205 -42 99 -115 280 -162 404 -48 124 -98 254 -112
290 -27 69 -136 322 -185 429 -16 35 -38 86 -50 112 -11 27 -24 49 -29 49 -5
0 -21 -18 -36 -39z"/>
<path d="M33495 19763 c-33 -1 -175 -7 -315 -13 -447 -19 -1596 -119 -2354
-205 -121 -14 -261 -30 -311 -35 -129 -14 -819 -97 -955 -115 -63 -9 -183 -24
-266 -35 -300 -39 -751 -100 -839 -115 -84 -14 -557 -84 -815 -120 -221 -31
-699 -107 -1230 -196 -294 -50 -602 -101 -685 -115 -289 -47 -1079 -187 -1665
-294 -118 -21 -343 -62 -500 -90 -313 -57 -793 -151 -1165 -229 -132 -28 -364
-75 -515 -105 -151 -30 -385 -78 -520 -106 -135 -28 -308 -64 -385 -80 -277
-57 -477 -100 -582 -125 -60 -14 -247 -57 -418 -95 -383 -85 -380 -84 -880
-215 -225 -59 -448 -115 -495 -125 -58 -11 -85 -22 -85 -31 0 -12 82 -14 515
-16 784 -3 2321 -22 2678 -33 922 -29 1427 -86 1874 -214 198 -57 288 -92 410
-160 174 -96 263 -181 330 -315 44 -90 51 -208 18 -329 -76 -282 -514 -655
-1125 -960 -720 -358 -1645 -680 -3160 -1097 -369 -102 -676 -179 -1285 -325
-140 -33 -264 -63 -275 -65 -118 -31 -502 -120 -750 -175 -170 -38 -400 -90
-510 -115 -257 -58 -780 -168 -1600 -334 -452 -92 -592 -120 -965 -191 -118
-23 -395 -77 -615 -120 -370 -73 -560 -109 -1010 -190 -181 -32 -474 -89
-1040 -200 -192 -38 -489 -94 -660 -125 -170 -31 -366 -69 -435 -84 -189 -44
-197 -45 -214 -24 -8 10 -32 39 -53 64 -21 26 -101 118 -178 205 -213 242
-394 474 -692 889 -358 499 -719 1112 -970 1650 -29 61 -73 155 -98 210 -214
457 -397 932 -539 1395 -122 401 -176 606 -265 1005 -152 681 -276 1476 -298
1907 l-6 128 -645 2 -645 3 6 -125 c25 -498 128 -1315 224 -1775 51 -246 62
-294 101 -470 73 -320 157 -622 319 -1145 89 -290 151 -465 282 -800 272 -701
513 -1204 889 -1865 253 -444 350 -597 635 -1000 525 -742 917 -1206 1571
-1861 360 -359 749 -714 785 -714 7 0 88 22 180 49 582 171 1538 437 2381 662
212 56 1150 302 1315 344 94 24 307 80 475 123 168 44 440 114 605 157 165 42
471 121 680 175 209 54 522 135 695 180 474 122 607 157 810 211 266 71 487
130 1070 284 623 165 991 265 1290 351 124 36 326 95 450 130 918 266 1976
617 2720 904 499 192 597 233 1076 446 536 238 1069 534 1534 852 544 371 933
790 1070 1154 60 160 73 226 73 363 0 534 -438 950 -1207 1149 -175 46 -539
107 -771 131 -516 53 -1012 68 -1920 61 -418 -3 -989 -8 -1270 -10 -521 -4
-532 -2 -140 29 110 8 268 22 350 30 83 8 283 26 445 40 162 13 475 40 695 59
590 51 861 66 1609 87 614 18 1214 -3 1628 -56 694 -89 1193 -259 1608 -548
137 -95 319 -292 405 -438 54 -93 101 -213 120 -308 26 -127 17 -365 -18 -479
-125 -402 -405 -769 -957 -1253 -534 -470 -1265 -930 -2280 -1438 -217 -108
-429 -212 -470 -230 -41 -19 -137 -63 -214 -98 -210 -97 -722 -315 -1096 -466
-283 -114 -1121 -432 -1185 -450 -11 -3 -137 -47 -280 -97 -557 -197 -1439
-489 -1945 -645 -118 -37 -262 -81 -320 -100 -58 -18 -179 -57 -270 -85 -91
-29 -185 -58 -209 -66 -25 -9 -104 -32 -175 -54 -72 -21 -189 -56 -261 -78
-197 -61 -647 -197 -855 -259 -102 -30 -342 -102 -535 -160 -192 -58 -447
-133 -565 -168 -118 -34 -312 -92 -430 -128 -118 -36 -231 -70 -250 -75 -293
-83 -725 -213 -1165 -351 -88 -27 -261 -80 -385 -117 -731 -217 -1040 -311
-1755 -533 -824 -256 -915 -285 -915 -293 0 -4 45 -42 101 -84 359 -271 1321
-776 1979 -1037 616 -245 887 -339 1515 -525 582 -173 1414 -347 2040 -426
855 -108 1205 -131 2045 -130 744 0 932 10 1645 89 1242 139 2621 486 3795
955 484 194 719 300 1215 550 698 353 1111 601 1725 1040 584 417 963 736
1514 1274 340 331 485 482 691 720 66 76 158 182 204 235 255 293 744 953
1022 1376 322 490 712 1203 967 1765 179 397 377 894 487 1224 426 1284 669
2503 720 3601 3 72 8 147 11 168 l6 37 -344 -2 c-188 -1 -370 -3 -403 -5z"/>
</g>
</svg>
